<mxfile host="app.diagrams.net" modified="2022-04-29T12:25:15.809Z" agent="5.0 (Windows NT 10.0; Win64; x64) AppleWebKit/537.36 (KHTML, like Gecko) Chrome/100.0.4896.127 Safari/537.36 Edg/100.0.1185.50" etag="a4zAxxHuZPAU7YrKLerF" version="17.4.6" type="github">
  <diagram id="Zgwyzn4SymjuZDDv96o8" name="Page-1">
    <mxGraphModel dx="1038" dy="579" grid="1" gridSize="10" guides="1" tooltips="1" connect="1" arrows="1" fold="1" page="1" pageScale="1" pageWidth="850" pageHeight="1100" math="0" shadow="0">
      <root>
        <mxCell id="0" />
        <mxCell id="1" parent="0" />
        <mxCell id="XzVgqLnCtP8nK_mCSvEq-3" value="" style="edgeStyle=orthogonalEdgeStyle;rounded=0;orthogonalLoop=1;jettySize=auto;html=1;" edge="1" parent="1" source="XzVgqLnCtP8nK_mCSvEq-1" target="XzVgqLnCtP8nK_mCSvEq-2">
          <mxGeometry relative="1" as="geometry" />
        </mxCell>
        <mxCell id="XzVgqLnCtP8nK_mCSvEq-1" value="start" style="rounded=1;whiteSpace=wrap;html=1;" vertex="1" parent="1">
          <mxGeometry x="80" y="30" width="90" height="20" as="geometry" />
        </mxCell>
        <mxCell id="XzVgqLnCtP8nK_mCSvEq-5" value="" style="edgeStyle=orthogonalEdgeStyle;rounded=0;orthogonalLoop=1;jettySize=auto;html=1;" edge="1" parent="1" source="XzVgqLnCtP8nK_mCSvEq-2" target="XzVgqLnCtP8nK_mCSvEq-4">
          <mxGeometry relative="1" as="geometry" />
        </mxCell>
        <mxCell id="XzVgqLnCtP8nK_mCSvEq-2" value="reset the locked sight and attack rng as empty" style="rounded=0;whiteSpace=wrap;html=1;" vertex="1" parent="1">
          <mxGeometry x="62.5" y="100" width="125" height="60" as="geometry" />
        </mxCell>
        <mxCell id="XzVgqLnCtP8nK_mCSvEq-7" value="" style="edgeStyle=orthogonalEdgeStyle;rounded=0;orthogonalLoop=1;jettySize=auto;html=1;" edge="1" parent="1" source="XzVgqLnCtP8nK_mCSvEq-4" target="XzVgqLnCtP8nK_mCSvEq-6">
          <mxGeometry relative="1" as="geometry" />
        </mxCell>
        <mxCell id="XzVgqLnCtP8nK_mCSvEq-4" value="set the pop grp target" style="whiteSpace=wrap;html=1;rounded=0;" vertex="1" parent="1">
          <mxGeometry x="65" y="210" width="120" height="60" as="geometry" />
        </mxCell>
        <mxCell id="XzVgqLnCtP8nK_mCSvEq-9" style="edgeStyle=orthogonalEdgeStyle;rounded=0;orthogonalLoop=1;jettySize=auto;html=1;entryX=0;entryY=0.5;entryDx=0;entryDy=0;" edge="1" parent="1" source="XzVgqLnCtP8nK_mCSvEq-6" target="XzVgqLnCtP8nK_mCSvEq-8">
          <mxGeometry relative="1" as="geometry" />
        </mxCell>
        <mxCell id="XzVgqLnCtP8nK_mCSvEq-6" value="reset the path array and store the exit point&lt;span style=&quot;color: rgba(0 , 0 , 0 , 0) ; font-family: monospace ; font-size: 0px&quot;&gt;%3CmxGraphModel%3E%3Croot%3E%3CmxCell%20id%3D%220%22%2F%3E%3CmxCell%20id%3D%221%22%20parent%3D%220%22%2F%3E%3CmxCell%20id%3D%222%22%20value%3D%22call%26amp%3Bnbsp%3BangleBetween%26lt%3Bbr%26gt%3BTwoPoints%22%20style%3D%22rounded%3D1%3BwhiteSpace%3Dwrap%3Bhtml%3D1%3BfillColor%3D%23f8cecc%3BgradientColor%3D%23ea6b66%3BstrokeColor%3D%23b85450%3B%22%20vertex%3D%221%22%20parent%3D%221%22%3E%3CmxGeometry%20x%3D%22240%22%20y%3D%22130%22%20width%3D%22120%22%20height%3D%2260%22%20as%3D%22geometry%22%2F%3E%3C%2FmxCell%3E%3C%2Froot%3E%3C%2FmxGraphModel%3E&lt;/span&gt;" style="whiteSpace=wrap;html=1;rounded=0;" vertex="1" parent="1">
          <mxGeometry x="65" y="320" width="120" height="60" as="geometry" />
        </mxCell>
        <mxCell id="XzVgqLnCtP8nK_mCSvEq-11" value="" style="edgeStyle=orthogonalEdgeStyle;rounded=0;orthogonalLoop=1;jettySize=auto;html=1;" edge="1" parent="1" source="XzVgqLnCtP8nK_mCSvEq-8" target="XzVgqLnCtP8nK_mCSvEq-10">
          <mxGeometry relative="1" as="geometry" />
        </mxCell>
        <mxCell id="XzVgqLnCtP8nK_mCSvEq-8" value="call finding the path rules for pop reach target point" style="rounded=1;whiteSpace=wrap;html=1;fillColor=#f8cecc;gradientColor=#ea6b66;strokeColor=#b85450;" vertex="1" parent="1">
          <mxGeometry x="270" y="40" width="120" height="60" as="geometry" />
        </mxCell>
        <mxCell id="XzVgqLnCtP8nK_mCSvEq-13" value="" style="edgeStyle=orthogonalEdgeStyle;rounded=0;orthogonalLoop=1;jettySize=auto;html=1;" edge="1" parent="1" source="XzVgqLnCtP8nK_mCSvEq-10" target="XzVgqLnCtP8nK_mCSvEq-12">
          <mxGeometry relative="1" as="geometry" />
        </mxCell>
        <mxCell id="XzVgqLnCtP8nK_mCSvEq-10" value="FOR pop grp&amp;nbsp;&lt;span style=&quot;color: rgba(0 , 0 , 0 , 0) ; font-family: monospace ; font-size: 0px&quot;&gt;%3CmxGraphModel%3E%3Croot%3E%3CmxCell%20id%3D%220%22%2F%3E%3CmxCell%20id%3D%221%22%20parent%3D%220%22%2F%3E%3CmxCell%20id%3D%222%22%20value%3D%22set%20the%20agent%20max%20speed%22%20style%3D%22rounded%3D1%3BwhiteSpace%3Dwrap%3Bhtml%3D1%3BfillColor%3D%23ffcc99%3BstrokeColor%3D%2336393d%3B%22%20vertex%3D%221%22%20parent%3D%221%22%3E%3CmxGeometry%20x%3D%22240%22%20y%3D%22220%22%20width%3D%22120%22%20height%3D%2260%22%20as%3D%22geometry%22%2F%3E%3C%2FmxCell%3E%3C%2Froot%3E%3C%2FmxGraphModel%3E&lt;/span&gt;" style="rhombus;whiteSpace=wrap;html=1;" vertex="1" parent="1">
          <mxGeometry x="290" y="130" width="80" height="80" as="geometry" />
        </mxCell>
        <mxCell id="XzVgqLnCtP8nK_mCSvEq-15" value="" style="edgeStyle=orthogonalEdgeStyle;rounded=0;orthogonalLoop=1;jettySize=auto;html=1;" edge="1" parent="1" source="XzVgqLnCtP8nK_mCSvEq-12" target="XzVgqLnCtP8nK_mCSvEq-14">
          <mxGeometry relative="1" as="geometry" />
        </mxCell>
        <mxCell id="XzVgqLnCtP8nK_mCSvEq-12" value="set the agent max speed" style="rounded=1;whiteSpace=wrap;html=1;fillColor=#ffcc99;strokeColor=#36393d;" vertex="1" parent="1">
          <mxGeometry x="270" y="240" width="120" height="60" as="geometry" />
        </mxCell>
        <mxCell id="XzVgqLnCtP8nK_mCSvEq-16" style="edgeStyle=orthogonalEdgeStyle;rounded=0;orthogonalLoop=1;jettySize=auto;html=1;entryX=1;entryY=0.5;entryDx=0;entryDy=0;" edge="1" parent="1" source="XzVgqLnCtP8nK_mCSvEq-14" target="XzVgqLnCtP8nK_mCSvEq-10">
          <mxGeometry relative="1" as="geometry">
            <Array as="points">
              <mxPoint x="330" y="400" />
              <mxPoint x="430" y="400" />
              <mxPoint x="430" y="170" />
            </Array>
          </mxGeometry>
        </mxCell>
        <mxCell id="XzVgqLnCtP8nK_mCSvEq-17" value="next pop&amp;nbsp;" style="edgeLabel;html=1;align=center;verticalAlign=middle;resizable=0;points=[];" vertex="1" connectable="0" parent="XzVgqLnCtP8nK_mCSvEq-16">
          <mxGeometry x="-0.5214" y="-2" relative="1" as="geometry">
            <mxPoint as="offset" />
          </mxGeometry>
        </mxCell>
        <mxCell id="XzVgqLnCtP8nK_mCSvEq-19" value="" style="edgeStyle=orthogonalEdgeStyle;rounded=0;orthogonalLoop=1;jettySize=auto;html=1;" edge="1" parent="1" source="XzVgqLnCtP8nK_mCSvEq-14" target="XzVgqLnCtP8nK_mCSvEq-18">
          <mxGeometry relative="1" as="geometry" />
        </mxCell>
        <mxCell id="XzVgqLnCtP8nK_mCSvEq-14" value="reset the orientation" style="rounded=0;whiteSpace=wrap;html=1;" vertex="1" parent="1">
          <mxGeometry x="270" y="330" width="120" height="60" as="geometry" />
        </mxCell>
        <mxCell id="XzVgqLnCtP8nK_mCSvEq-18" value="end" style="ellipse;whiteSpace=wrap;html=1;rounded=0;" vertex="1" parent="1">
          <mxGeometry x="275" y="440" width="110" height="30" as="geometry" />
        </mxCell>
      </root>
    </mxGraphModel>
  </diagram>
</mxfile>
